<svg width="26" height="24" viewBox="0 0 26 24" fill="none" xmlns="http://www.w3.org/2000/svg">
<path d="M18.8519 0.75C16.6769 0.75 14.5894 1.7625 13.2269 3.3625C11.8644 1.7625 9.7769 0.75 7.6019 0.75C3.7519 0.75 0.726898 3.775 0.726898 7.625C0.726898 12.35 4.9769 16.2 11.4144 22.05L13.2269 23.6875L15.0394 22.0375C21.4769 16.2 25.7269 12.35 25.7269 7.625C25.7269 3.775 22.7019 0.75 18.8519 0.75ZM13.3519 20.1875L13.2269 20.3125L13.1019 20.1875C7.1519 14.8 3.2269 11.2375 3.2269 7.625C3.2269 5.125 5.1019 3.25 7.6019 3.25C9.5269 3.25 11.4019 4.4875 12.0644 6.2H14.4019C15.0519 4.4875 16.9269 3.25 18.8519 3.25C21.3519 3.25 23.2269 5.125 23.2269 7.625C23.2269 11.2375 19.3019 14.8 13.3519 20.1875Z" fill="#7F7F7F"/>
</svg>
