<svg width="23" height="23" viewBox="0 0 23 23" fill="none" xmlns="http://www.w3.org/2000/svg">
<path d="M16.4894 14.0375H15.5019L15.1519 13.7C16.3769 12.275 17.1144 10.425 17.1144 8.41248C17.1144 3.92498 13.4769 0.287476 8.9894 0.287476C4.5019 0.287476 0.864395 3.92498 0.864395 8.41248C0.864395 12.9 4.5019 16.5375 8.9894 16.5375C11.0019 16.5375 12.8519 15.8 14.2769 14.575L14.6144 14.925V15.9125L20.8644 22.15L22.7269 20.2875L16.4894 14.0375ZM8.9894 14.0375C5.87689 14.0375 3.3644 11.525 3.3644 8.41248C3.3644 5.29998 5.87689 2.78748 8.9894 2.78748C12.1019 2.78748 14.6144 5.29998 14.6144 8.41248C14.6144 11.525 12.1019 14.0375 8.9894 14.0375Z" fill="#7F7F7F"/>
</svg>
