<svg width="22" height="23" viewBox="0 0 22 23" fill="none" xmlns="http://www.w3.org/2000/svg">
<path d="M15.6269 14.0375H14.6394L14.2894 13.7C15.5144 12.275 16.2519 10.425 16.2519 8.41248C16.2519 3.92498 12.6144 0.287476 8.12689 0.287476C3.63939 0.287476 0.00189209 3.92498 0.00189209 8.41248C0.00189209 12.9 3.63939 16.5375 8.12689 16.5375C10.1394 16.5375 11.9894 15.8 13.4144 14.575L13.7519 14.925V15.9125L20.0019 22.15L21.8644 20.2875L15.6269 14.0375ZM8.12689 14.0375C5.01439 14.0375 2.50189 11.525 2.50189 8.41248C2.50189 5.29998 5.01439 2.78748 8.12689 2.78748C11.2394 2.78748 13.7519 5.29998 13.7519 8.41248C13.7519 11.525 11.2394 14.0375 8.12689 14.0375Z" fill="#0F7AED"/>
</svg>
